<svg xmlns="http://www.w3.org/2000/svg" xmlns:xlink="http://www.w3.org/1999/xlink" viewBox="0,0,256,256" width="48px" height="48px"><g fill="#6D6D6D" fill-rule="nonzero" stroke="none" stroke-width="1" stroke-linecap="butt" stroke-linejoin="miter" stroke-miterlimit="10" stroke-dasharray="" stroke-dashoffset="0" font-family="none" font-weight="none" font-size="none" text-anchor="none" style="mix-blend-mode: normal"><g transform="scale(5.33333,5.33333)"><path d="M16.5,5c-0.82839,0.00008 -1.49992,0.67161 -1.5,1.5v7.5h-3.5c-4.1245,0 -7.5,3.3755 -7.5,7.5v14c0,4.1245 3.3755,7.5 7.5,7.5h25c4.1245,0 7.5,-3.3755 7.5,-7.5v-14c0,-4.1245 -3.3755,-7.5 -7.5,-7.5h-3.5v-7.5c-0.00008,-0.82839 -0.67161,-1.49992 -1.5,-1.5zM18,8h12v6h-12zM11.5,17h5h15h5c2.5035,0 4.5,1.9965 4.5,4.5v14c0,2.5035 -1.9965,4.5 -4.5,4.5h-25c-2.5035,0 -4.5,-1.9965 -4.5,-4.5v-14c0,-2.5035 1.9965,-4.5 4.5,-4.5z"></path></g></g></svg>